<svg xmlns="http://www.w3.org/2000/svg" width="1920" height="168" viewBox="0 0 1920 168">
  <path id="banner-curve" d="M0,168V71c46.74,9.26,102.48-12.59,151.05-3.45,48.13,9.06,90.39,50.72,140.51,58,48.64,7.09,103.44-20.36,153.77-15,49,5.23,95.09,43.5,145.54,47,49.29,3.44,101.41-27.94,151.91-26.21,49.46,1.7,98.75,36.6,149.22,36.6s99.75-34.9,149.21-36.6c50.49-1.73,102.61,29.65,151.89,26.21,50.45-3.52,96.53-41.78,145.55-47,50.33-5.37,105.12,22.08,153.76,15,50.13-7.31,92.39-49,140.52-58,49.82-9.37,107.19,13.47,154.65,2.32,49-11.51,86.31-56.1,132.42-69.87V168Z" fill="#fff" fill-rule="evenodd"/>
</svg>
