<svg xmlns="http://www.w3.org/2000/svg" width="32" height="32" viewBox="0 0 32 32">
  <g id="favicon" transform="translate(-3959 -1595)">
    <rect id="Rectangle_23510" data-name="Rectangle 23510" width="32" height="32" rx="6" transform="translate(3959 1595)" fill="none"/>
    <g id="Group_55658" data-name="Group 55658" transform="translate(35 -28)">
      <path id="Path_5840" data-name="Path 5840" d="M-973.123,233.832c-.029,0-.049.015-.044.04a.125.125,0,0,0,.088.107c.019,0,.055-.007.048-.029a.2.2,0,0,0-.092-.118" transform="translate(4909.456 1394.39)" fill="#161615"/>
      <path id="Path_5841" data-name="Path 5841" d="M-1271.258,238.589a20.439,20.439,0,0,0-5.281-1.92,19.2,19.2,0,0,0-2.2-.443.509.509,0,0,1-.505-.452c-.226-1.117-.481-2.228-.737-3.338-.267-1.157-.556-2.309-.824-3.466-.46-1.991-.908-3.987-1.366-5.98-.3-1.319-.615-2.636-.918-3.954-.135-.588-.255-1.179-.39-1.767-.041-.178.008-.219.185-.2a13.643,13.643,0,0,1,2.114.443,28.531,28.531,0,0,1,4.426,1.665c.264.127.536.237.8.355l.027-.064c-.054-.037-.11-.072-.161-.112a26.3,26.3,0,0,0-5.1-3.189,14.46,14.46,0,0,0-3.756-1.2c-.325-.052-.346-.037-.269.289q.571,2.4,1.152,4.8.293,1.221.584,2.441c.263,1.108.519,2.217.784,3.325.2.852.417,1.7.619,2.552.26,1.089.507,2.181.765,3.27.213.9.433,1.8.651,2.7.221.917.444,1.835.658,2.754a.233.233,0,0,0,.09.17.233.233,0,0,0,.188.044,14.75,14.75,0,0,1,2.445.214,25.665,25.665,0,0,1,4.052.822,13.488,13.488,0,0,1,3.023,1.236c.2.115.4.236.6.354a5.486,5.486,0,0,0-1.652-1.345" transform="translate(5209.25 1412.536)" fill="#519c21"/>
      <path id="Path_5842" data-name="Path 5842" d="M-854.557,214.957a14.462,14.462,0,0,0-3.757,1.2,26.3,26.3,0,0,0-5.1,3.189c-.052.04-.107.075-.161.112l.027.064c.268-.118.541-.228.8-.355a28.53,28.53,0,0,1,4.426-1.665,13.649,13.649,0,0,1,2.114-.443c.177-.022.226.019.185.2-.135.588-.255,1.179-.39,1.767-.3,1.319-.616,2.636-.919,3.954-.457,1.993-.906,3.988-1.366,5.98-.267,1.157-.556,2.309-.823,3.466-.257,1.11-.511,2.222-.737,3.338a.509.509,0,0,1-.505.452,19.2,19.2,0,0,0-2.2.443,20.4,20.4,0,0,0-5.281,1.92,5.492,5.492,0,0,0-1.652,1.345c.2-.118.4-.239.6-.354a13.487,13.487,0,0,1,3.023-1.236,25.665,25.665,0,0,1,4.052-.822,14.75,14.75,0,0,1,2.445-.214.233.233,0,0,0,.187-.044.233.233,0,0,0,.09-.17c.215-.919.438-1.836.659-2.754.216-.9.437-1.8.65-2.7.258-1.089.506-2.181.764-3.27.2-.852.416-1.7.619-2.552.264-1.108.522-2.217.784-3.325q.288-1.221.584-2.441.577-2.4,1.151-4.8c.077-.325.058-.34-.269-.289" transform="translate(4810.249 1412.543)" fill="#519c21"/>
      <path id="Path_5843" data-name="Path 5843" d="M-936.809,420.334a.722.722,0,0,0,.317-.6.64.64,0,0,0-.225-.511q-.462-.429-.936-.845c-.256-.224-.53-.427-.779-.657a.918.918,0,0,0-1.193.06c-.516.467-1.04.924-1.558,1.387a.693.693,0,0,0-.283.566.692.692,0,0,0,.295.56c.109.1.208.2.315.3.474.427.895.91,1.389,1.315a.794.794,0,0,0,1.1-.089c.531-.483,1.014-1.016,1.56-1.484" transform="translate(4879.003 1217.927)" fill="#ffc200"/>
      <path id="Path_5844" data-name="Path 5844" d="M-842.832,511.7c.038.245.226.385.37.55.457.525.977.991,1.434,1.517a.581.581,0,0,0,.5.221.588.588,0,0,0,.494-.2c.519-.575,1.042-1.148,1.547-1.736a.777.777,0,0,0,.025-1.039,23.006,23.006,0,0,0-1.578-1.795.627.627,0,0,0-.489-.211.628.628,0,0,0-.475.242c-.544.563-1.081,1.133-1.619,1.7a.835.835,0,0,0-.2.747" transform="translate(4784.266 1130.045)" fill="#e4d400"/>
      <path id="Path_5845" data-name="Path 5845" d="M-863.755,366.243q.88.779,1.765,1.551a.939.939,0,0,0,.564.207.865.865,0,0,0,.543-.249c.391-.378.808-.728,1.22-1.082a.508.508,0,0,0,.243-.4.508.508,0,0,0-.184-.429,1.785,1.785,0,0,0-.186-.183c-.487-.423-.974-.846-1.489-1.235a.847.847,0,0,0-1.1-.035c-.455.323-.9.659-1.35.991a.526.526,0,0,0-.231.468.547.547,0,0,0,.205.394" transform="translate(4804.548 1269.152)" fill="#f17900"/>
      <path id="Path_5846" data-name="Path 5846" d="M-770.267,445.362c.5.562,1.006,1.121,1.494,1.7a.517.517,0,0,0,.432.221.517.517,0,0,0,.425-.234,17.574,17.574,0,0,0,1.065-1.455.729.729,0,0,0,.116-.418.959.959,0,0,0-.2-.559c-.159-.2-.313-.4-.477-.592-.309-.365-.613-.735-.941-1.082a.49.49,0,0,0-.818.033l-1.07,1.2a.808.808,0,0,0-.275.589.808.808,0,0,0,.247.6" transform="translate(4714.781 1193.713)" fill="#b0c000"/>
      <path id="Path_5847" data-name="Path 5847" d="M-768.639,590.921a.485.485,0,0,0,.393.227.485.485,0,0,0,.409-.2,16.148,16.148,0,0,0,1.467-1.75.753.753,0,0,0,.062-.864,14.266,14.266,0,0,0-1.07-1.482.535.535,0,0,0-.453-.251.535.535,0,0,0-.454.251c-.5.573-1,1.151-1.5,1.724a.77.77,0,0,0-.19.54.666.666,0,0,0,.171.479c.391.439.775.883,1.164,1.324" transform="translate(4714.263 1055.508)" fill="#b0c000"/>
      <path id="Path_5848" data-name="Path 5848" d="M-1005.1,365.489a.526.526,0,0,0-.231-.468c-.449-.332-.895-.668-1.35-.991a.846.846,0,0,0-1.1.035c-.516.389-1,.812-1.489,1.235a1.818,1.818,0,0,0-.186.183.508.508,0,0,0-.184.429.507.507,0,0,0,.244.4c.413.354.829.7,1.22,1.082a.864.864,0,0,0,.543.249.939.939,0,0,0,.563-.207q.887-.771,1.765-1.551a.548.548,0,0,0,.205-.394" transform="translate(4944.489 1269.497)" fill="#f17900"/>
      <path id="Path_5849" data-name="Path 5849" d="M-1053.766,338.687c.262.157.5.353.74.533a.449.449,0,0,0,.342.113.953.953,0,0,0,.729-.327c.473-.439.986-.829,1.484-1.238.323-.266.343-.589-.064-.75-.2-.08-.4-.175-.591-.272a.9.9,0,0,0-1.047.14c-.5.4-1,.813-1.47,1.255a1.536,1.536,0,0,0-.183.214.206.206,0,0,0-.057.182.206.206,0,0,0,.117.151" transform="translate(4986.996 1295.633)" fill="#d80c12"/>
      <path id="Path_5850" data-name="Path 5850" d="M-715.182,657.369c.192.264.273.272.511.041a17.315,17.315,0,0,0,1.376-1.6.764.764,0,0,0,.192-.728,5.145,5.145,0,0,0-.416-.931.328.328,0,0,0-.248-.207.329.329,0,0,0-.306.106,1.587,1.587,0,0,0-.2.2q-.642.766-1.281,1.535a.941.941,0,0,0-.238.614.45.45,0,0,0,.1.281q.253.339.5.683" transform="translate(4662.209 990.821)" fill="#519c21"/>
      <path id="Path_5851" data-name="Path 5851" d="M-714.231,399.413a4.6,4.6,0,0,0-.548-.589c-.211-.173-.3-.159-.457.063-.138.2-.276.391-.42.583a.708.708,0,0,0,.031,1q.464.549.927,1.1c.163.195.314.4.484.589a.363.363,0,0,0,.354.172.363.363,0,0,0,.3-.252c.087-.168.171-.337.246-.51a1.97,1.97,0,0,0,.179-.559,1.22,1.22,0,0,0-.267-.588c-.274-.339-.548-.676-.832-1.007" transform="translate(4662.266 1236.008)" fill="#519c21"/>
      <path id="Path_5852" data-name="Path 5852" d="M-1028.729,513.8a.582.582,0,0,0,.5-.221c.456-.527.976-.993,1.433-1.517.145-.165.333-.3.37-.55a.834.834,0,0,0-.2-.747c-.538-.568-1.075-1.138-1.62-1.7a.626.626,0,0,0-.475-.242.628.628,0,0,0-.49.211,23.1,23.1,0,0,0-1.578,1.795.777.777,0,0,0,.025,1.039c.5.588,1.027,1.161,1.547,1.736a.589.589,0,0,0,.494.2" transform="translate(4964.993 1130.227)" fill="#e4d400"/>
      <path id="Path_5853" data-name="Path 5853" d="M-1083.089,444.428a.959.959,0,0,0-.2.559.729.729,0,0,0,.115.418,17.532,17.532,0,0,0,1.065,1.455.517.517,0,0,0,.425.235.517.517,0,0,0,.432-.221c.488-.575.993-1.133,1.494-1.7a.808.808,0,0,0,.247-.6.809.809,0,0,0-.274-.589l-1.07-1.2a.49.49,0,0,0-.818-.033c-.328.346-.631.718-.941,1.082-.164.193-.318.395-.478.593" transform="translate(5015.24 1193.891)" fill="#b0c000"/>
      <path id="Path_5854" data-name="Path 5854" d="M-1081.284,590.739c.389-.44.773-.885,1.164-1.324a.664.664,0,0,0,.171-.479.768.768,0,0,0-.19-.54c-.5-.573-1-1.15-1.5-1.724a.535.535,0,0,0-.454-.251.535.535,0,0,0-.453.251,14.245,14.245,0,0,0-1.07,1.481.753.753,0,0,0,.062.864,16.132,16.132,0,0,0,1.467,1.75.485.485,0,0,0,.409.2.485.485,0,0,0,.394-.227" transform="translate(5015.658 1055.683)" fill="#b0c000"/>
      <path id="Path_5855" data-name="Path 5855" d="M-1110.745,655.635a17.245,17.245,0,0,0,1.375,1.6c.238.231.319.222.511-.041q.249-.342.5-.683a.448.448,0,0,0,.1-.281.94.94,0,0,0-.238-.614q-.639-.769-1.281-1.535a1.579,1.579,0,0,0-.2-.2.329.329,0,0,0-.306-.106.328.328,0,0,0-.248.208,5.147,5.147,0,0,0-.416.931.764.764,0,0,0,.192.728" transform="translate(5041.83 990.992)" fill="#519c21"/>
      <path id="Path_5856" data-name="Path 5856" d="M-1108.827,398.7c-.157-.222-.246-.238-.457-.063a4.571,4.571,0,0,0-.548.589c-.283.331-.558.668-.832,1.007a1.223,1.223,0,0,0-.267.588,1.966,1.966,0,0,0,.179.559c.075.173.16.342.246.51a.363.363,0,0,0,.3.252.363.363,0,0,0,.354-.172c.169-.189.321-.394.484-.589q.461-.551.927-1.1a.708.708,0,0,0,.031-1c-.144-.192-.282-.387-.42-.583" transform="translate(5041.794 1236.184)" fill="#519c21"/>
      <path id="Path_5857" data-name="Path 5857" d="M-793.814,338.5c-.355-.334-.726-.648-1.1-.957q.122.371.246.742c.041.122.081.244.125.365.033.091.034.093-.06.093h-.675c-.228,0-.456,0-.683,0-.069,0-.078-.017-.058-.08q.233-.7.462-1.394a.074.074,0,0,1,.083-.058l.151,0a.886.886,0,0,0-1-.108c-.193.1-.39.192-.591.272-.407.162-.387.485-.064.75.5.409,1.01.8,1.484,1.238a.952.952,0,0,0,.729.327.449.449,0,0,0,.342-.113c.244-.18.478-.375.74-.533a.206.206,0,0,0,.117-.151.206.206,0,0,0-.057-.182,1.531,1.531,0,0,0-.183-.214" transform="translate(4740.441 1295.288)" fill="#d80c12"/>
      <path id="Path_5858" data-name="Path 5858" d="M-1028.467,181.671c.065.029.065.007.064-.044,0-.239,0-.477,0-.716a.133.133,0,0,1,.083-.137l.182-.1h0a8.085,8.085,0,0,1,1.212-.491c.082-.025.165-.047.249-.069a8.729,8.729,0,0,1,1.141-.221,9.128,9.128,0,0,1,1.235-.072,8.9,8.9,0,0,1,1.4.124c.275.047.546.105.815.177.224.06.445.132.664.212a6.391,6.391,0,0,1,.97.449.115.115,0,0,1,.064.115c0,.244,0,.488,0,.732,0,.051.007.069.062.04.073-.039.151-.068.226-.1l.945-.414.75-.332c-.031-.022-.049-.037-.069-.049l-1.215-.706-1.35-.791q-.9-.523-1.795-1.044c-.458-.266-.92-.526-1.37-.8a.311.311,0,0,0-.382,0c-.476.289-.96.562-1.441.842l-1.3.758-1.365.8-1.373.8c-.1.061-.208.124-.323.192.184.082.354.159.524.234.466.2.934.407,1.4.614" transform="translate(4964.425 1448.631)" fill="#b0c000"/>
      <path id="Path_5859" data-name="Path 5859" d="M-962.838,254.564q.266,0,.531.019a8.628,8.628,0,0,1,1.119.163,6.9,6.9,0,0,1,1.358.449c.129.058.253.126.375.2.06.034.068.012.068-.041v-1.834a.119.119,0,0,0-.069-.12,5.853,5.853,0,0,0-1.276-.528,7.2,7.2,0,0,0-1.073-.229,7.473,7.473,0,0,0-1.034-.065,7.475,7.475,0,0,0-1.034.065,7.2,7.2,0,0,0-1.074.229,5.85,5.85,0,0,0-1.276.528.119.119,0,0,0-.069.12c0,.433,0,.863,0,1.3v.539c0,.053.008.075.068.041.122-.07.246-.138.375-.2a6.905,6.905,0,0,1,1.359-.449,8.628,8.628,0,0,1,1.119-.163q.265-.023.532-.019" transform="translate(4902.849 1376.386)" fill="#b0c000"/>
      <path id="Path_5860" data-name="Path 5860" d="M-753.851,284.169a.109.109,0,0,0,.109-.109v-1.744l-.511.223v1.522a.109.109,0,0,0,.109.109Z" transform="translate(4699.16 1347.815)" fill="#b0c000"/>
    </g>
  </g>
</svg>
