<svg xmlns="http://www.w3.org/2000/svg" width="130.197" height="14.744" viewBox="0 0 130.197 14.744">
  <path id="heading-line" d="M1.773,8.3l9.3-.6L19.6,7.1l8.3-.7c1.218-.1,2.491-.3,3.764-.3L37.2,5.9h3.045l5.7.2,8.525.6L71.909,8l8.58.8,8.525.7c5.37.4,10.739.7,16.053,1.3l4.429.5,4.927.7,4.262.7,1.771.3,2.048.5,2.879.6,3.654,1.2.332.1c.576.049,1.1-.607,1.273-1.6a4.422,4.422,0,0,0-.111-1.9c-.111-.4-.443-1-.72-1.1l-2.325-.8-2.325-.7q-3.784-.917-7.584-1.6a3.483,3.483,0,0,0,.554-2.4,4.089,4.089,0,0,0-.554-1.5l-.609-.5a10.925,10.925,0,0,0-1.439-.4l-1.107-.3-2.1-.2L108.168,2l-8.58-.5-8.525-.3L86.579,1H73.072L64.326.8C58.956.7,53.476.6,48.051.7H39.969c-2.879,0-5.757,0-8.636.2l-5.7.1-3.266.1-5.2.4-3.432.3c-4.1.5-8.137,1-12.178,1.7a1.145,1.145,0,0,0-.609.6A2.922,2.922,0,0,0,.5,5.7c0,1.3.554,2.5,1.273,2.5" transform="translate(-0.5 -0.658)" fill="#f5bf15" fill-rule="evenodd"/>
</svg>
