<svg xmlns="http://www.w3.org/2000/svg" width="135.583" height="146.07" viewBox="0 0 135.583 146.07">
  <g id="msingipack-logo" transform="translate(-442.999 -35.172)">
    <path id="Cloud" d="M5.728.24C7.968.24,9.792-1.136,9.792-3.5c0-.16-.128-1.44-.352-1.44A3.046,3.046,0,0,1,6.464-2.608C5.072-2.608,2.992-3.84,2.992-6.9c0-2,.992-4.384,3.328-4.384,2.032,0,1.152,1.5,1.808,1.5,1.008,0,1.648-.528,1.648-1.456,0-1.728-2.144-2.32-3.536-2.32C2.352-13.552.4-9.76.4-6.288.4-3.056,2.1.24,5.728.24ZM13.376,0c.176,0,.592.08.592-.192A32.43,32.43,0,0,1,13.36-6.96a26.975,26.975,0,0,1,.672-6.384c0-.352-.48-.3-.656-.3h-1.52c-.72,0-.656,7.168-.656,7.92C11.2-5.36,11.136,0,11.7,0Zm5.408.24c1.84,0,4.016-1.616,4.016-5.376,0-2.576-1.232-5.344-4.016-5.344s-4.016,2.768-4.016,5.344C14.768-1.376,16.944.24,18.784.24Zm0-2.672c-1.616,0-2.032-1.824-2.032-3.1,0-1.264.448-3.056,2.032-3.056S20.816-6.8,20.816-5.536C20.816-4.256,20.4-2.432,18.784-2.432ZM29.12-10.24c-.176,0-.544-.016-.544.192a33.995,33.995,0,0,1,.56,4.64c0,3.44-1.216,3.6-1.744,3.6-1.376,0-1.36-2.432-1.36-3.328A16.067,16.067,0,0,1,26.768-10c0-.32-.432-.24-.64-.24H24.656c-.672,0-.784,4.8-.784,5.072C23.872-.592,25.1.24,26.432.24a2.163,2.163,0,0,0,1.184-.368c.288-.192.656-.528.8-.528.912,0-.368.9,1.312.9C30.88.24,31.3.512,31.3-5.36c0-1.52-.016-4.88-.688-4.88Zm7.184,7.9c-1.36,0-1.776-1.712-1.776-2.816,0-2.912,1.568-3.808,2.256-3.808.592,0,1.024.192,1.024,3.008C37.808-4.8,38.032-2.336,36.3-2.336ZM39.472,0c.56,0,.5-5.36.5-5.728,0-.752.064-7.92-.656-7.92H37.648c-.16,0-.56,0-.56.224a18.433,18.433,0,0,1,.4,2.48c0,.256-.048.832-.368.832-.224,0-.576-.368-.912-.368-1.408,0-3.84,2-3.84,5.664C32.368-1.584,33.936,0,35.728,0Z" transform="translate(490 181)" fill="#4d4d4d"/>
    <g id="Group_2924" data-name="Group 2924" transform="translate(1818.818 -142.197)">
      <path id="Path_5828" data-name="Path 5828" d="M-1360.13,934.806l-6.522,13.291-6.585-13.291h-.263l-2.319,16.2h1.564l1.591-11.672,5.8,11.672h.414l5.727-11.584,1.6,11.584h1.587l-2.331-16.2Z" transform="translate(0 -654.107)" fill="#b2c100"/>
      <path id="Path_5829" data-name="Path 5829" d="M-1224.45,968.933a6.2,6.2,0,0,1-1.854-1.266,1.712,1.712,0,0,1-.441-1.112,1.53,1.53,0,0,1,.536-1.156,1.826,1.826,0,0,1,1.286-.5,3.563,3.563,0,0,1,2.418,1.2l.991-1.024a4.881,4.881,0,0,0-3.331-1.619,3.247,3.247,0,0,0-2.355.9,3.025,3.025,0,0,0-.932,2.268,3.113,3.113,0,0,0,.585,1.861,6.224,6.224,0,0,0,2.207,1.652,6.922,6.922,0,0,1,1.942,1.277,1.792,1.792,0,0,1,.43,1.178,1.837,1.837,0,0,1-.651,1.4,2.258,2.258,0,0,1-1.578.6,3.37,3.37,0,0,1-2.5-1.332l-.969,1.1a4.3,4.3,0,0,0,1.561,1.244,4.529,4.529,0,0,0,1.98.451,3.539,3.539,0,0,0,2.592-1.024,3.38,3.38,0,0,0,1.037-2.5,3.129,3.129,0,0,0-.607-1.883,6.921,6.921,0,0,0-2.339-1.718" transform="translate(-127.07 -678.852)" fill="#b2c100"/>
      <path id="Path_5830" data-name="Path 5830" d="M-1160.26,929.56a1.21,1.21,0,0,0-.888.374,1.233,1.233,0,0,0-.373.9,1.22,1.22,0,0,0,.373.892,1.21,1.21,0,0,0,.888.375,1.222,1.222,0,0,0,.9-.375,1.22,1.22,0,0,0,.373-.892,1.233,1.233,0,0,0-.373-.9,1.222,1.222,0,0,0-.9-.374" transform="translate(-185.063 -649.577)" fill="#b2c100"/>
      <rect id="Rectangle_41" data-name="Rectangle 41" width="1.542" height="11.981" transform="translate(-1346.087 284.917)" fill="#b2c100"/>
      <path id="Path_5831" data-name="Path 5831" d="M-1114.68,964.143a4.25,4.25,0,0,0-2.384-.683,5.033,5.033,0,0,0-2.445.611,6.446,6.446,0,0,0-2.048,1.844v-2.147h-1.542v11.981h1.542v-4.394a15.909,15.909,0,0,1,.22-3.259,4.333,4.333,0,0,1,1.459-2.291,3.8,3.8,0,0,1,2.506-.925,3.1,3.1,0,0,1,1.982.6,3.034,3.034,0,0,1,1.028,1.789,14.073,14.073,0,0,1,.172,2.764v5.715h1.542v-6.166a9.726,9.726,0,0,0-.5-3.6,4.068,4.068,0,0,0-1.536-1.839" transform="translate(-218.242 -678.852)" fill="#b2c100"/>
      <path id="Path_5832" data-name="Path 5832" d="M-1015.86,965.849a6.915,6.915,0,0,0-2.243-1.833,5.738,5.738,0,0,0-2.508-.556,6.106,6.106,0,0,0-3.081.837,6.071,6.071,0,0,0-2.287,2.274,6.113,6.113,0,0,0-.827,3.1,6.032,6.032,0,0,0,.794,3.05,5.827,5.827,0,0,0,2.249,2.208,6.229,6.229,0,0,0,3.109.82,6.207,6.207,0,0,0,2.668-.589,5.837,5.837,0,0,0,2.127-1.69v.617a6.577,6.577,0,0,1-.463,2.87,3.6,3.6,0,0,1-1.549,1.476,5.539,5.539,0,0,1-2.663.587,5.676,5.676,0,0,1-2.679-.573,4.421,4.421,0,0,1-1.764-1.762h-1.674a6.969,6.969,0,0,0,1.42,2.148,5.546,5.546,0,0,0,2,1.171,8.243,8.243,0,0,0,2.769.436,6.914,6.914,0,0,0,3.6-.892,4.8,4.8,0,0,0,2.1-2.544,11.281,11.281,0,0,0,.44-3.689v-9.547h-1.542Zm-1.217,7.169a4.655,4.655,0,0,1-3.419,1.277,4.7,4.7,0,0,1-3.425-1.288,4.36,4.36,0,0,1-1.321-3.259,4.79,4.79,0,0,1,.639-2.417,4.591,4.591,0,0,1,1.762-1.751,4.874,4.874,0,0,1,2.434-.633,4.687,4.687,0,0,1,2.345.617,4.333,4.333,0,0,1,1.685,1.679,4.864,4.864,0,0,1,.595,2.417,4.51,4.51,0,0,1-1.294,3.359" transform="translate(-301.398 -678.852)" fill="#b2c100"/>
      <path id="Path_5833" data-name="Path 5833" d="M-915.126,929.56a1.21,1.21,0,0,0-.888.374,1.233,1.233,0,0,0-.373.9,1.22,1.22,0,0,0,.373.892,1.21,1.21,0,0,0,.888.375,1.222,1.222,0,0,0,.9-.375,1.22,1.22,0,0,0,.373-.892,1.233,1.233,0,0,0-.373-.9,1.222,1.222,0,0,0-.9-.374" transform="translate(-396.753 -649.577)" fill="#b2c100"/>
      <rect id="Rectangle_42" data-name="Rectangle 42" width="1.542" height="11.981" transform="translate(-1312.645 284.917)" fill="#b2c100"/>
      <path id="Path_5834" data-name="Path 5834" d="M-865.5,935.3a10.761,10.761,0,0,0-3.826-.49h-3.27V951h3.083v-6.86a13.827,13.827,0,0,0,3.248-.253,4.6,4.6,0,0,0,2.406-1.564,4.411,4.411,0,0,0,.886-2.819,4.9,4.9,0,0,0-.677-2.626,3.891,3.891,0,0,0-1.85-1.586m-.716,5.129a1.429,1.429,0,0,1-.71.547,5.293,5.293,0,0,1-1.608.166h-.98v-3.326h.87a4.141,4.141,0,0,1,1.96.32,1.475,1.475,0,0,1,.727,1.37,1.6,1.6,0,0,1-.259.923" transform="translate(-434.567 -654.107)" fill="#519d21"/>
      <path id="Path_5835" data-name="Path 5835" d="M-783.256,934.806-789.5,951h3.2l1.318-3.336h6.61L-777.1,951h3.2l-6.23-16.2Zm-.591,9.855,2.173-5.561,2.16,5.561Z" transform="translate(-506.327 -654.107)" fill="#519d21"/>
      <path id="Path_5836" data-name="Path 5836" d="M-654.963,934.8a6.678,6.678,0,0,1,4.951,2.326l2.156-2.056a9.232,9.232,0,0,0-3.2-2.408,9.2,9.2,0,0,0-3.859-.847,8.846,8.846,0,0,0-4.4,1.146,8.145,8.145,0,0,0-3.138,3.028,8.4,8.4,0,0,0-1.1,4.306,8.291,8.291,0,0,0,2.406,6.139,8.39,8.39,0,0,0,6.183,2.4,9.262,9.262,0,0,0,3.645-.677,11.479,11.479,0,0,0,3.392-2.429l-2.09-2.181a8.791,8.791,0,0,1-2.443,1.824,5.893,5.893,0,0,1-2.453.5,5.783,5.783,0,0,1-2.861-.716,5.047,5.047,0,0,1-1.991-1.973,5.786,5.786,0,0,1-.7-2.877,5.313,5.313,0,0,1,1.59-3.913,5.32,5.32,0,0,1,3.911-1.587" transform="translate(-615.099 -651.527)" fill="#519d21"/>
      <path id="Path_5837" data-name="Path 5837" d="M-517.376,934.806h-3.7l-4.4,5.584v-5.584h-3.116V951h3.116v-7.2l4.994,7.2h3.656l-6.207-8.969Z" transform="translate(-731.643 -654.107)" fill="#519d21"/>
      <path id="Path_5838" data-name="Path 5838" d="M-448.6,901.715h1.545v3.444h.831v-3.444h1.552v-.671H-448.6Z" transform="translate(-800.718 -624.952)" fill="#100e0b"/>
      <path id="Path_5839" data-name="Path 5839" d="M-412.666,901.045l-1.15,2.782c-.059.143-.109.267-.151.373l-.128-.325-1.137-2.831h-1.11v4.115h.808v-2.9l1.181,2.9h.7l1.188-2.849v2.849h.808v-4.115Z" transform="translate(-828.579 -624.952)" fill="#100e0b"/>
      <path id="Path_5840" data-name="Path 5840" d="M-973.012,233.832c-.1,0-.171.053-.153.137a.43.43,0,0,0,.305.371c.065.015.19-.023.166-.1a.709.709,0,0,0-.319-.408" transform="translate(-347.719 -48.764)" fill="#161615"/>
      <path id="Path_5841" data-name="Path 5841" d="M-1236.77,296.874c-5.726-3.238-11.963-5.1-18.3-6.652a66.516,66.516,0,0,0-7.635-1.536,1.764,1.764,0,0,1-1.75-1.567c-.782-3.869-1.665-7.719-2.553-11.565-.926-4.008-1.927-8-2.853-12.008-1.594-6.9-3.147-13.816-4.732-20.721-1.049-4.57-2.132-9.133-3.183-13.7-.469-2.037-.883-4.086-1.351-6.124-.141-.616.027-.758.641-.681a47.276,47.276,0,0,1,7.325,1.535,98.811,98.811,0,0,1,15.335,5.768c.914.44,1.857.821,2.787,1.229l.092-.22c-.187-.129-.38-.25-.559-.388a91.125,91.125,0,0,0-17.666-11.05,50.1,50.1,0,0,0-13.016-4.172c-1.127-.18-1.2-.128-.932,1q1.978,8.318,3.99,16.628,1.016,4.229,2.024,8.459c.91,3.839,1.8,7.682,2.718,11.52.7,2.951,1.445,5.893,2.145,8.844.9,3.774,1.756,7.557,2.649,11.332.738,3.121,1.5,6.235,2.254,9.353.765,3.179,1.537,6.357,2.281,9.542a.808.808,0,0,0,.313.59.808.808,0,0,0,.65.153,51.1,51.1,0,0,1,8.471.743,88.91,88.91,0,0,1,14.041,2.847,46.74,46.74,0,0,1,10.474,4.284c.694.4,1.379.817,2.068,1.226a19.025,19.025,0,0,0-5.723-4.662" transform="translate(-78.213 -32.448)" fill="#519c21"/>
      <path id="Path_5842" data-name="Path 5842" d="M-816.752,215.017a50.1,50.1,0,0,0-13.017,4.172,91.138,91.138,0,0,0-17.666,11.05c-.179.139-.372.259-.558.389l.092.22c.93-.408,1.873-.789,2.787-1.229a98.822,98.822,0,0,1,15.335-5.768,47.3,47.3,0,0,1,7.325-1.535c.613-.077.782.065.64.681-.468,2.037-.882,4.086-1.351,6.123-1.051,4.57-2.134,9.133-3.183,13.7-1.585,6.9-3.138,13.818-4.732,20.721-.926,4.008-1.927,8-2.853,12.008-.889,3.847-1.771,7.7-2.553,11.565a1.763,1.763,0,0,1-1.75,1.567,66.526,66.526,0,0,0-7.635,1.536c-6.34,1.55-12.576,3.414-18.3,6.652a19.018,19.018,0,0,0-5.723,4.662c.689-.409,1.373-.827,2.068-1.226a46.74,46.74,0,0,1,10.474-4.284,88.909,88.909,0,0,1,14.041-2.847,51.116,51.116,0,0,1,8.471-.743.808.808,0,0,0,.649-.153.808.808,0,0,0,.313-.59c.745-3.184,1.516-6.362,2.282-9.542.75-3.118,1.515-6.232,2.254-9.353.893-3.775,1.754-7.557,2.649-11.332.7-2.952,1.441-5.893,2.145-8.844.915-3.838,1.808-7.681,2.718-11.52q1-4.232,2.024-8.459,2-8.314,3.99-16.628c.268-1.125.2-1.177-.932-1" transform="translate(-436.9 -32.448)" fill="#519c21"/>
      <path id="Path_5843" data-name="Path 5843" d="M-925.33,427.252a2.5,2.5,0,0,0,1.1-2.086,2.217,2.217,0,0,0-.779-1.769q-1.6-1.488-3.242-2.928c-.887-.775-1.836-1.479-2.7-2.276a3.18,3.18,0,0,0-4.134.207c-1.788,1.616-3.6,3.2-5.4,4.806a2.4,2.4,0,0,0-.981,1.96,2.4,2.4,0,0,0,1.021,1.94c.378.33.719.7,1.092,1.039,1.642,1.48,3.1,3.154,4.814,4.557a2.753,2.753,0,0,0,3.807-.309c1.839-1.674,3.514-3.521,5.405-5.143" transform="translate(-375.092 -207.397)" fill="#ffc200"/>
      <path id="Path_5844" data-name="Path 5844" d="M-842.786,518.331c.131.849.784,1.333,1.283,1.906,1.584,1.818,3.385,3.433,4.967,5.258a2.015,2.015,0,0,0,1.718.767,2.04,2.04,0,0,0,1.71-.682c1.8-1.992,3.612-3.977,5.36-6.016a2.691,2.691,0,0,0,.087-3.6,79.729,79.729,0,0,0-5.469-6.219,2.172,2.172,0,0,0-1.7-.731,2.172,2.172,0,0,0-1.645.838c-1.885,1.952-3.746,3.926-5.611,5.9a2.892,2.892,0,0,0-.7,2.587" transform="translate(-460.268 -286.398)" fill="#e4d400"/>
      <path id="Path_5845" data-name="Path 5845" d="M-863.247,371.27q3.049,2.7,6.115,5.375a3.253,3.253,0,0,0,1.953.716,3,3,0,0,0,1.882-.864c1.356-1.311,2.8-2.521,4.228-3.748a1.761,1.761,0,0,0,.844-1.379,1.761,1.761,0,0,0-.637-1.486,6.222,6.222,0,0,0-.643-.635c-1.688-1.464-3.374-2.93-5.16-4.278a2.933,2.933,0,0,0-3.815-.121c-1.577,1.12-3.124,2.282-4.678,3.433a1.823,1.823,0,0,0-.8,1.62,1.9,1.9,0,0,0,.711,1.367" transform="translate(-442.028 -161.348)" fill="#f17900"/>
      <path id="Path_5846" data-name="Path 5846" d="M-769.657,451.841c1.738,1.948,3.487,3.884,5.176,5.876a1.791,1.791,0,0,0,1.5.767,1.791,1.791,0,0,0,1.473-.812,60.806,60.806,0,0,0,3.691-5.042,2.526,2.526,0,0,0,.4-1.449,3.322,3.322,0,0,0-.687-1.935c-.55-.686-1.085-1.383-1.654-2.053-1.072-1.263-2.122-2.548-3.26-3.75-.952-1.006-1.915-.918-2.835.116l-3.706,4.163a2.8,2.8,0,0,0-.951,2.039,2.8,2.8,0,0,0,.856,2.081" transform="translate(-522.724 -229.165)" fill="#b0c000"/>
      <path id="Path_5847" data-name="Path 5847" d="M-765.343,601.563a1.68,1.68,0,0,0,1.364.787,1.68,1.68,0,0,0,1.417-.687,55.92,55.92,0,0,0,5.082-6.062,2.61,2.61,0,0,0,.216-2.994,49.323,49.323,0,0,0-3.707-5.133,1.853,1.853,0,0,0-1.571-.87,1.853,1.853,0,0,0-1.571.87c-1.737,1.987-3.456,3.989-5.2,5.973a2.669,2.669,0,0,0-.659,1.87,2.308,2.308,0,0,0,.593,1.658c1.355,1.52,2.686,3.061,4.034,4.586" transform="translate(-523.194 -353.409)" fill="#b0c000"/>
      <path id="Path_5848" data-name="Path 5848" d="M-993.9,369.544a1.823,1.823,0,0,0-.8-1.62c-1.555-1.151-3.1-2.313-4.678-3.433a2.933,2.933,0,0,0-3.815.121c-1.786,1.348-3.472,2.813-5.16,4.278a6.226,6.226,0,0,0-.643.635,1.76,1.76,0,0,0-.637,1.486,1.76,1.76,0,0,0,.844,1.379c1.43,1.227,2.872,2.438,4.228,3.748a2.994,2.994,0,0,0,1.882.864,3.254,3.254,0,0,0,1.952-.716q3.072-2.67,6.115-5.375a1.9,1.9,0,0,0,.711-1.367" transform="translate(-316.226 -161.038)" fill="#f17900"/>
      <path id="Path_5849" data-name="Path 5849" d="M-1053.47,343.74c.908.544,1.717,1.222,2.564,1.847a1.558,1.558,0,0,0,1.186.393,3.3,3.3,0,0,0,2.527-1.134c1.64-1.521,3.418-2.872,5.142-4.291,1.118-.921,1.188-2.04-.221-2.6-.7-.277-1.378-.608-2.047-.943a3.114,3.114,0,0,0-3.629.486c-1.738,1.4-3.466,2.816-5.093,4.348a5.235,5.235,0,0,0-.636.741.714.714,0,0,0-.2.632.714.714,0,0,0,.407.523" transform="translate(-278.012 -137.539)" fill="#d80c12"/>
      <path id="Path_5850" data-name="Path 5850" d="M-713.69,665.817c.664.913.947.944,1.77.142a59.994,59.994,0,0,0,4.766-5.531,2.645,2.645,0,0,0,.665-2.522,17.828,17.828,0,0,0-1.44-3.227,1.139,1.139,0,0,0-.86-.719,1.139,1.139,0,0,0-1.059.367,5.53,5.53,0,0,0-.677.7q-2.225,2.654-4.438,5.318a3.259,3.259,0,0,0-.823,2.128,1.554,1.554,0,0,0,.358.974q.878,1.176,1.738,2.365" transform="translate(-569.984 -411.562)" fill="#519c21"/>
      <path id="Path_5851" data-name="Path 5851" d="M-710.246,401.157a15.927,15.927,0,0,0-1.9-2.042c-.732-.6-1.04-.55-1.583.219-.479.677-.958,1.355-1.455,2.019a2.453,2.453,0,0,0,.108,3.463q1.608,1.9,3.211,3.8c.565.675,1.089,1.385,1.676,2.04a1.259,1.259,0,0,0,1.227.595,1.259,1.259,0,0,0,1.049-.872c.3-.582.593-1.167.852-1.766a6.828,6.828,0,0,0,.621-1.936,4.229,4.229,0,0,0-.925-2.036c-.949-1.173-1.9-2.341-2.883-3.489" transform="translate(-569.934 -191.143)" fill="#519c21"/>
      <path id="Path_5852" data-name="Path 5852" d="M-1023.18,526.078a2.015,2.015,0,0,0,1.718-.767c1.582-1.825,3.383-3.44,4.967-5.258.5-.573,1.153-1.056,1.283-1.906a2.891,2.891,0,0,0-.7-2.587c-1.865-1.97-3.726-3.945-5.611-5.9a2.172,2.172,0,0,0-1.645-.838,2.172,2.172,0,0,0-1.7.731,79.709,79.709,0,0,0-5.469,6.219,2.691,2.691,0,0,0,.087,3.6c1.747,2.039,3.558,4.025,5.359,6.017a2.041,2.041,0,0,0,1.71.681" transform="translate(-297.792 -286.24)" fill="#e4d400"/>
      <path id="Path_5853" data-name="Path 5853" d="M-1082.6,449.061a3.323,3.323,0,0,0-.687,1.935,2.525,2.525,0,0,0,.4,1.449,60.758,60.758,0,0,0,3.691,5.042,1.791,1.791,0,0,0,1.473.812,1.791,1.791,0,0,0,1.5-.767c1.689-1.992,3.439-3.927,5.176-5.876a2.8,2.8,0,0,0,.857-2.081,2.8,2.8,0,0,0-.951-2.039l-3.706-4.163c-.92-1.034-1.883-1.122-2.835-.116-1.138,1.2-2.188,2.487-3.26,3.75-.569.67-1.1,1.367-1.654,2.053" transform="translate(-252.621 -229.007)" fill="#b0c000"/>
      <path id="Path_5854" data-name="Path 5854" d="M-1075.27,601.38c1.348-1.526,2.679-3.066,4.034-4.586a2.308,2.308,0,0,0,.593-1.658,2.668,2.668,0,0,0-.659-1.871c-1.74-1.984-3.459-3.986-5.2-5.973a1.853,1.853,0,0,0-1.571-.87,1.853,1.853,0,0,0-1.571.87,49.359,49.359,0,0,0-3.707,5.133,2.61,2.61,0,0,0,.216,2.994,55.915,55.915,0,0,0,5.082,6.062,1.68,1.68,0,0,0,1.417.687,1.68,1.68,0,0,0,1.364-.787" transform="translate(-252.245 -353.251)" fill="#b0c000"/>
      <path id="Path_5855" data-name="Path 5855" d="M-1110.21,660.246a59.951,59.951,0,0,0,4.766,5.531c.823.8,1.106.771,1.77-.142q.863-1.187,1.738-2.365a1.552,1.552,0,0,0,.358-.974,3.26,3.26,0,0,0-.823-2.128q-2.213-2.664-4.438-5.318a5.509,5.509,0,0,0-.677-.7,1.139,1.139,0,0,0-1.06-.367,1.139,1.139,0,0,0-.86.719,17.806,17.806,0,0,0-1.439,3.227,2.645,2.645,0,0,0,.665,2.522" transform="translate(-228.706 -411.405)" fill="#519c21"/>
      <path id="Path_5856" data-name="Path 5856" d="M-1103.64,399.151c-.543-.768-.851-.823-1.583-.219a15.923,15.923,0,0,0-1.9,2.042c-.979,1.148-1.934,2.316-2.883,3.489a4.226,4.226,0,0,0-.925,2.036,6.828,6.828,0,0,0,.621,1.936c.26.6.555,1.184.852,1.766a1.259,1.259,0,0,0,1.049.872,1.259,1.259,0,0,0,1.227-.595c.587-.655,1.111-1.365,1.676-2.04q1.6-1.909,3.212-3.8a2.453,2.453,0,0,0,.108-3.463c-.5-.664-.976-1.342-1.455-2.02" transform="translate(-228.753 -190.986)" fill="#519c21"/>
      <path id="Path_5857" data-name="Path 5857" d="M-785.4,342.206c-1.229-1.157-2.515-2.246-3.82-3.314q.425,1.286.853,2.571c.141.422.282.845.432,1.264.114.317.117.321-.207.321h-2.34c-.789,0-1.579-.007-2.368,0-.238,0-.272-.06-.2-.278q.808-2.413,1.6-4.831a.255.255,0,0,1,.289-.2c.174,0,.348.005.522.006a3.071,3.071,0,0,0-3.482-.373c-.669.335-1.351.666-2.047.943-1.41.561-1.34,1.68-.221,2.6,1.723,1.419,3.5,2.771,5.142,4.291a3.3,3.3,0,0,0,2.526,1.133,1.557,1.557,0,0,0,1.186-.392c.847-.625,1.656-1.3,2.563-1.847a.714.714,0,0,0,.407-.523.714.714,0,0,0-.2-.632,5.273,5.273,0,0,0-.636-.741" transform="translate(-499.659 -137.852)" fill="#d80c12"/>
      <path id="Path_5858" data-name="Path 5858" d="M-1023.73,192.275c.224.1.223.024.222-.153,0-.827.009-1.654-.008-2.481a.462.462,0,0,1,.287-.474c.211-.11.419-.223.63-.337h0a27.982,27.982,0,0,1,4.2-1.7c.285-.085.573-.163.861-.239a30.257,30.257,0,0,1,3.955-.767,31.622,31.622,0,0,1,4.28-.249,30.851,30.851,0,0,1,4.85.429c.952.162,1.893.364,2.824.612.777.207,1.541.458,2.3.736a22.144,22.144,0,0,1,3.36,1.555.4.4,0,0,1,.221.4c-.013.846,0,1.691-.007,2.537,0,.177.023.24.214.137.252-.135.522-.235.784-.35l3.274-1.433c.853-.375,1.705-.753,2.6-1.15-.107-.075-.17-.127-.24-.168q-2.1-1.224-4.209-2.445c-1.562-.911-3.119-1.829-4.68-2.74q-3.107-1.812-6.218-3.616c-1.586-.923-3.188-1.821-4.745-2.789a1.08,1.08,0,0,0-1.325.012c-1.647,1-3.326,1.948-4.991,2.918q-2.247,1.31-4.491,2.626l-4.731,2.761q-2.366,1.38-4.758,2.77c-.362.211-.72.428-1.118.665.639.285,1.226.551,1.817.81,1.616.708,3.235,1.409,4.846,2.127" transform="translate(-298.301)" fill="#b0c000"/>
      <path id="Path_5859" data-name="Path 5859" d="M-954.324,259.472q.921-.013,1.842.065a29.893,29.893,0,0,1,3.878.564,23.929,23.929,0,0,1,4.707,1.555c.445.2.875.435,1.3.677.207.119.235.042.235-.141v-6.356a.412.412,0,0,0-.24-.415,20.277,20.277,0,0,0-4.42-1.831,24.954,24.954,0,0,0-3.72-.792,25.89,25.89,0,0,0-3.584-.224,25.9,25.9,0,0,0-3.584.224,24.962,24.962,0,0,0-3.72.792,20.276,20.276,0,0,0-4.42,1.831.412.412,0,0,0-.24.415c.007,1.5,0,2.992,0,4.488v1.868c0,.184.027.26.234.141.424-.242.854-.477,1.3-.677a23.939,23.939,0,0,1,4.707-1.555,29.9,29.9,0,0,1,3.878-.564q.92-.078,1.842-.065" transform="translate(-353.66 -64.949)" fill="#b0c000"/>
      <path id="Path_5860" data-name="Path 5860" d="M-752.86,288.738a.379.379,0,0,0,.379-.379v-6.043l-1.772.771v5.273a.379.379,0,0,0,.379.379Z" transform="translate(-536.768 -90.633)" fill="#b0c000"/>
    </g>
  </g>
</svg>
