<svg xmlns="http://www.w3.org/2000/svg" width="277.404" height="361.511" viewBox="0 0 277.404 361.511">
  <g id="successfull" transform="translate(-12152.395 -9981.223)">
    <path id="Path_26227" data-name="Path 26227" d="M845.536,503.026c0-17.756-.028-30.307.011-42.856.021-6.679,2.229-10.1,8.571-12.3a895.006,895.006,0,0,0,124.124-53.948c4.668-2.459,8.847-1.3,13.351.787,29.038,13.462,58.062,26.96,87.3,39.969,10.737,4.777,22.048,8.27,33.107,12.321,8.616,3.155,10.6,5.916,10.593,15.081-.016,23.889.661,47.8-.233,71.662-1.72,45.853-10.163,90.277-32.386,131.1-22.346,41.049-54.556,71.181-98.753,87.8a18.8,18.8,0,0,1-13.975.116C937.1,737.9,906.636,711.4,884.23,675.353c-18.538-29.824-28.677-62.668-34.223-97.151C845.718,551.54,845.12,524.719,845.536,503.026Zm105.719,76.593c-5.179-5.512-9.848-10.616-14.666-15.574-7.713-7.938-16.671-7.942-24.614-.114-2.691,2.651-5.349,5.339-8,8.034-7.759,7.895-7.852,16.762-.133,24.777q18.4,19.1,36.927,38.09c8.958,9.168,18.532,8.561,26.627-1.35q27.957-34.228,56.039-68.355,20.983-25.586,41.941-51.192c7.073-8.694,5.954-17.83-2.8-24.95-3.163-2.575-6.245-5.254-9.458-7.767-7.961-6.224-16.8-5.316-23.2,2.467q-22.616,27.471-45.131,55.024Z" transform="translate(11306.97 9588.685)" fill="#e8edf4"/>
    <path id="Path_26229" data-name="Path 26229" d="M845.517,483.884c0-14.68-.023-25.056.009-35.431.017-5.522,1.843-8.348,7.086-10.167a739.943,739.943,0,0,0,102.619-44.6c3.859-2.033,7.314-1.076,11.038.651,24.007,11.13,48,22.289,72.179,33.044,8.877,3.949,18.228,6.837,27.371,10.186,7.123,2.608,8.763,4.891,8.758,12.468-.013,19.75.547,39.522-.192,59.246-1.422,37.909-8.4,74.636-26.775,108.386-18.474,33.937-45.1,58.849-81.644,72.587a15.539,15.539,0,0,1-11.554.1c-33.2-12.28-58.381-34.2-76.9-63.994-15.326-24.657-23.709-51.811-28.294-80.319C845.667,523.993,845.173,501.818,845.517,483.884Zm87.4,63.323c-4.282-4.557-8.142-8.777-12.125-12.876-6.377-6.563-13.783-6.566-20.35-.094-2.225,2.192-4.422,4.414-6.612,6.642-6.415,6.527-6.492,13.858-.11,20.484q15.213,15.8,30.529,31.491c7.406,7.58,15.321,7.078,22.014-1.116q23.113-28.3,46.33-56.512,17.348-21.153,34.675-42.323c5.847-7.188,4.922-14.741-2.311-20.627-2.615-2.129-5.163-4.344-7.819-6.421-6.582-5.146-13.886-4.4-19.183,2.04q-18.7,22.712-37.312,45.491Z" transform="translate(11331 9620)" fill="#39b54a"/>
    <path id="Path_26228" data-name="Path 26228" d="M932.92,547.207l27.726-33.821q18.651-22.75,37.312-45.491c5.3-6.435,12.6-7.186,19.183-2.04,2.656,2.077,5.2,4.292,7.819,6.421,7.233,5.886,8.158,13.439,2.311,20.627q-17.263,21.222-34.675,42.323-23.169,28.252-46.33,56.512c-6.693,8.194-14.608,8.7-22.014,1.116q-15.327-15.684-30.529-31.491c-6.382-6.626-6.3-13.957.11-20.484,2.19-2.228,4.387-4.45,6.612-6.642,6.567-6.472,13.973-6.469,20.35.094C924.778,538.43,928.638,542.65,932.92,547.207Z" transform="translate(11331 9620)" fill="#fff"/>
  </g>
</svg>
